<svg xmlns="http://www.w3.org/2000/svg" viewBox="0 0 65.54 65.54"><defs><style>.cls-1{fill:none;}.cls-2{fill:#1973f7;}.cls-3{fill:#cf9fff;}.cls-4{fill:#aa6fef;}.cls-5{fill:#1c5af4;}</style></defs><g id="Layer_2" data-name="Layer 2"><g id="Layer_1-2" data-name="Layer 1"><path class="cls-1" d="M46.6,32.33,38,23.68l6.29-15L42.75,7.15,18.94,31a1.61,1.61,0,0,0,0,2.26l8.65,8.65-6.29,15,1.49,1.48L46.6,34.58A1.59,1.59,0,0,0,46.6,32.33Z"/><path class="cls-2" d="M18.94,33.22a1.61,1.61,0,0,1,0-2.26L42.75,7.15,37.61,2a6.83,6.83,0,0,0-9.68,0L2,27.93a6.83,6.83,0,0,0,0,9.68L21.3,56.91l6.29-15Z"/><path class="cls-3" d="M44.24,8.63,38,23.68l8.65,8.65a1.59,1.59,0,0,1,0,2.25L22.79,58.39l5.14,5.14a6.83,6.83,0,0,0,9.68,0L63.53,37.61a6.83,6.83,0,0,0,0-9.68Z"/><path class="cls-4" d="M22.79,58.39l10-10,10,10-5.3,5.18a6.7,6.7,0,0,1-9.36,0Z"/><path class="cls-5" d="M42.75,7.18l-10,10-10-10L28.09,2a6.7,6.7,0,0,1,9.36,0Z"/></g></g></svg>