<svg xmlns="http://www.w3.org/2000/svg" viewBox="0 0 105.7 50.39"><defs><style>.cls-1{fill:#0f0f0f;}.cls-2{fill:#1973f7;}.cls-3{fill:#cf9fff;}</style></defs><g id="Layer_2" data-name="Layer 2"><g id="Layer_1-2" data-name="Layer 1"><path class="cls-1" d="M74.72,0h-12a1,1,0,0,0-.9.57l-7.3,18.7a1,1,0,0,1-1.81,0L45.81.59a1,1,0,0,0-.9-.59H29.77a.87.87,0,0,0-.87,1.21L45.19,34.72a.77.77,0,0,1,0,.63L40.39,48a.88.88,0,0,0,.9,1.15H55.06a1,1,0,0,0,.89-.56L75.62,1.16A.88.88,0,0,0,74.72,0Z"/><polygon class="cls-2" points="27.17 49.83 31.71 35.93 30.02 35.93 25.42 49.84 27.17 49.83"/><path class="cls-1" d="M17.18,34.4,24.38.13,14.07.17C10.28.18,8.8,3.21,8,7L.16,43.17a5.31,5.31,0,0,0,5.4,6.74l18.86-.07L29,35.93,18.44,36A1.23,1.23,0,0,1,17.18,34.4Z"/><path d="M105.06,9.83H98.55A.63.63,0,0,1,97.94,9L100.83.85a.65.65,0,0,0-.62-.85H85.49a.65.65,0,0,0-.61.43l-3.19,9a.64.64,0,0,1-.61.42H76.37a.64.64,0,0,0-.61.43L72,20.77a.65.65,0,0,0,.61.85h3.82a.64.64,0,0,1,.61.84L72.61,35Q67.15,50.4,84.7,50.39h4.69L94,38.32H91.28c-1.36,0-2.24-.24-2.64-.73s-.41-1.27,0-2.38L93.3,22a.65.65,0,0,1,.61-.42h7.41a.64.64,0,0,0,.61-.43l3.74-10.51A.65.65,0,0,0,105.06,9.83Z"/><path class="cls-3" d="M96.79,38.32h-1L91.16,50.39H93a.65.65,0,0,0,.61-.43l3.83-10.8A.63.63,0,0,0,96.79,38.32Z"/></g></g></svg>